HIERARCHY
ROOT reference
{
  OFFSET 0 0 0
  CHANNELS 6 Xposition Yposition Zposition Zrotation Xrotation Yrotation
  JOINT Hips
  {
    OFFSET 346.547 88.4868 223.89
    CHANNELS 3 Zrotation Xrotation Yrotation
    JOINT RightUpLeg
    {
      OFFSET -9.27468 -1.51611 -0.00175448
      CHANNELS 3 Zrotation Xrotation Yrotation
      JOINT RightLeg
      {
        OFFSET -0.00464511 -41.8738 0.0184652
        CHANNELS 3 Zrotation Xrotation Yrotation
        JOINT RightFoot
        {
          OFFSET -0.626239 -42.3044 -0.171503
          CHANNELS 3 Zrotation Xrotation Yrotation
          End Site
          {
            OFFSET 0 -7.69 17.5
          }
        }
      }
    }
    JOINT LeftUpLeg
    {
      OFFSET 9.30083 -1.68454 -0.0454748
      CHANNELS 3 Zrotation Xrotation Yrotation
      JOINT LeftLeg
      {
        OFFSET 0.0692631 -41.8513 -0.097029
        CHANNELS 3 Zrotation Xrotation Yrotation
        JOINT LeftFoot
        {
          OFFSET 0.520945 -41.523 0.446349
          CHANNELS 3 Zrotation Xrotation Yrotation
          End Site
          {
            OFFSET 0 -7.69 17.5
          }
        }
      }
    }
    JOINT Spine
    {
      OFFSET 0.0770133 14.2992 0.0590021
      CHANNELS 3 Zrotation Xrotation Yrotation
      JOINT Spine1
      {
        OFFSET 0.0471461 9.71665 0.020973
        CHANNELS 3 Zrotation Xrotation Yrotation
        JOINT Spine2
        {
          OFFSET 0.051283 10.117 0.000913966
          CHANNELS 3 Zrotation Xrotation Yrotation
          JOINT Spine3
          {
            OFFSET 0.0447963 9.71088 0.00221408
            CHANNELS 3 Zrotation Xrotation Yrotation
            JOINT Neck
            {
              OFFSET 0.115655 10.3749 0.0448519
              CHANNELS 3 Zrotation Xrotation Yrotation
              JOINT Head
              {
                OFFSET 0.0937003 9.47807 0.0215077
                CHANNELS 3 Zrotation Xrotation Yrotation
                End Site
                {
                  OFFSET 0 15.95 0
                }
              }
            }
            JOINT RightShoulder
            {
              OFFSET -3.17023 6.91072 -0.0050072
              CHANNELS 3 Zrotation Xrotation Yrotation
              JOINT RightArm
              {
                OFFSET -12.7573 0.00694711 0.0313031
                CHANNELS 3 Zrotation Xrotation Yrotation
                JOINT RightForeArm
                {
                  OFFSET -26.5152 -0.0619338 -0.0331286
                  CHANNELS 3 Zrotation Xrotation Yrotation
                  JOINT RightHand
                  {
                    OFFSET -25.9971 0.0398378 -0.0269922
                    CHANNELS 3 Zrotation Xrotation Yrotation
                    JOINT RightHandThumb1
                    {
                      OFFSET -2.48905 0.190105 3.12053
                      CHANNELS 3 Zrotation Xrotation Yrotation
                      JOINT RightHandThumb2
                      {
                        OFFSET -3.68274 0 0
                        CHANNELS 3 Zrotation Xrotation Yrotation
                        JOINT RightHandThumb3
                        {
                          OFFSET -2.55832 0 0
                          CHANNELS 3 Zrotation Xrotation Yrotation
                          End Site
                          {
                            OFFSET -2.194 0 0
                          }
                        }
                      }
                    }
                    JOINT RightInHandIndex
                    {
                      OFFSET -3.22368 0.508421 1.97842
                      CHANNELS 3 Zrotation Xrotation Yrotation
                      JOINT RightHandIndex1
                      {
                        OFFSET -5.21684 -0.091368 0.999158
                        CHANNELS 3 Zrotation Xrotation Yrotation
                        JOINT RightHandIndex2
                        {
                          OFFSET -3.61937 0 0
                          CHANNELS 3 Zrotation Xrotation Yrotation
                          JOINT RightHandIndex3
                          {
                            OFFSET -2.0521 0 0
                            CHANNELS 3 Zrotation Xrotation Yrotation
                            End Site
                            {
                              OFFSET -1.805 0 0
                            }
                          }
                        }
                      }
                    }
                    JOINT RightInHandMiddle
                    {
                      OFFSET -3.38211 0.517263 0.756737
                      CHANNELS 3 Zrotation Xrotation Yrotation
                      JOINT RightHandMiddle1
                      {
                        OFFSET -5.17411 -0.084 0.313895
                        CHANNELS 3 Zrotation Xrotation Yrotation
                        JOINT RightHandMiddle2
                        {
                          OFFSET -3.94947 0 0
                          CHANNELS 3 Zrotation Xrotation Yrotation
                          JOINT RightHandMiddle3
                          {
                            OFFSET -2.47579 0 0
                            CHANNELS 3 Zrotation Xrotation Yrotation
                            End Site
                            {
                              OFFSET -1.975 0 0
                            }
                          }
                        }
                      }
                    }
                    JOINT RightInHandRing
                    {
                      OFFSET -3.36516 0.537895 -0.128947
                      CHANNELS 3 Zrotation Xrotation Yrotation
                      JOINT RightHandRing1
                      {
                        OFFSET -4.63474 -0.022105 -0.478947
                        CHANNELS 3 Zrotation Xrotation Yrotation
                        JOINT RightHandRing2
                        {
                          OFFSET -3.44238 0 0
                          CHANNELS 3 Zrotation Xrotation Yrotation
                          JOINT RightHandRing3
                          {
                            OFFSET -2.3881 0 0
                            CHANNELS 3 Zrotation Xrotation Yrotation
                            End Site
                            {
                              OFFSET -1.857 0 0
                            }
                          }
                        }
                      }
                    }
                    JOINT RightInHandPinky
                    {
                      OFFSET -3.16105 0.469368 -1.20179
                      CHANNELS 3 Zrotation Xrotation Yrotation
                      JOINT RightHandPinky1
                      {
                        OFFSET -4.14105 -0.022105 -1.09053
                        CHANNELS 3 Zrotation Xrotation Yrotation
                        JOINT RightHandPinky2
                        {
                          OFFSET -2.75653 0 0
                          CHANNELS 3 Zrotation Xrotation Yrotation
                          JOINT RightHandPinky3
                          {
                            OFFSET -1.74189 0 0
                            CHANNELS 3 Zrotation Xrotation Yrotation
                            End Site
                            {
                              OFFSET -1.645 0 0
                            }
                          }
                        }
                      }
                    }
                  }
                }
              }
            }
            JOINT LeftShoulder
            {
              OFFSET 3.25178 6.92057 -0.0384945
              CHANNELS 3 Zrotation Xrotation Yrotation
              JOINT LeftArm
              {
                OFFSET 12.8462 -0.0383255 -0.0637898
                CHANNELS 3 Zrotation Xrotation Yrotation
                JOINT LeftForeArm
                {
                  OFFSET 26.4888 -0.0608964 -0.0673835
                  CHANNELS 3 Zrotation Xrotation Yrotation
                  JOINT LeftHand
                  {
                    OFFSET 25.9932 -0.0402352 -0.0274148
                    CHANNELS 3 Zrotation Xrotation Yrotation
                    JOINT LeftHandThumb1
                    {
                      OFFSET 2.48905 0.190105 3.12053
                      CHANNELS 3 Zrotation Xrotation Yrotation
                      JOINT LeftHandThumb2
                      {
                        OFFSET 3.68274 0 0
                        CHANNELS 3 Zrotation Xrotation Yrotation
                        JOINT LeftHandThumb3
                        {
                          OFFSET 2.55832 0 0
                          CHANNELS 3 Zrotation Xrotation Yrotation
                          End Site
                          {
                            OFFSET 2.194 0 0
                          }
                        }
                      }
                    }
                    JOINT LeftInHandIndex
                    {
                      OFFSET 3.22368 0.508421 1.97842
                      CHANNELS 3 Zrotation Xrotation Yrotation
                      JOINT LeftHandIndex1
                      {
                        OFFSET 5.21684 -0.091368 0.999158
                        CHANNELS 3 Zrotation Xrotation Yrotation
                        JOINT LeftHandIndex2
                        {
                          OFFSET 3.61937 0 0
                          CHANNELS 3 Zrotation Xrotation Yrotation
                          JOINT LeftHandIndex3
                          {
                            OFFSET 2.0521 0 0
                            CHANNELS 3 Zrotation Xrotation Yrotation
                            End Site
                            {
                              OFFSET 1.805 0 0
                            }
                          }
                        }
                      }
                    }
                    JOINT LeftInHandMiddle
                    {
                      OFFSET 3.38211 0.517263 0.756737
                      CHANNELS 3 Zrotation Xrotation Yrotation
                      JOINT LeftHandMiddle1
                      {
                        OFFSET 5.17411 -0.084 0.313895
                        CHANNELS 3 Zrotation Xrotation Yrotation
                        JOINT LeftHandMiddle2
                        {
                          OFFSET 3.94947 0 0
                          CHANNELS 3 Zrotation Xrotation Yrotation
                          JOINT LeftHandMiddle3
                          {
                            OFFSET 2.47579 0 0
                            CHANNELS 3 Zrotation Xrotation Yrotation
                            End Site
                            {
                              OFFSET 1.975 0 0
                            }
                          }
                        }
                      }
                    }
                    JOINT LeftInHandRing
                    {
                      OFFSET 3.36516 0.537895 -0.128947
                      CHANNELS 3 Zrotation Xrotation Yrotation
                      JOINT LeftHandRing1
                      {
                        OFFSET 4.63474 -0.022105 -0.478947
                        CHANNELS 3 Zrotation Xrotation Yrotation
                        JOINT LeftHandRing2
                        {
                          OFFSET 3.44238 0 0
                          CHANNELS 3 Zrotation Xrotation Yrotation
                          JOINT LeftHandRing3
                          {
                            OFFSET 2.3881 0 0
                            CHANNELS 3 Zrotation Xrotation Yrotation
                            End Site
                            {
                              OFFSET 1.857 0 0
                            }
                          }
                        }
                      }
                    }
                    JOINT LeftInHandPinky
                    {
                      OFFSET 3.16105 0.469368 -1.20179
                      CHANNELS 3 Zrotation Xrotation Yrotation
                      JOINT LeftHandPinky1
                      {
                        OFFSET 4.14105 -0.022105 -1.09053
                        CHANNELS 3 Zrotation Xrotation Yrotation
                        JOINT LeftHandPinky2
                        {
                          OFFSET 2.75653 0 0
                          CHANNELS 3 Zrotation Xrotation Yrotation
                          JOINT LeftHandPinky3
                          {
                            OFFSET 1.74189 0 0
                            CHANNELS 3 Zrotation Xrotation Yrotation
                            End Site
                            {
                              OFFSET 1.645 0 0
                            }
                          }
                        }
                      }
                    }
                  }
                }
              }
            }
          }
        }
      }
    }
  }
}
MOTION
Frames: 2
Frame Time: 0.00833333
1.500000000000000000e+02 0.000000000000000000e+00 0.000000000000000000e+00 0.000000000000000000e+00 0.000000000000000000e+00 -0.000000000000000000e+00 -1.308562655792739216e-03 9.078872726438650537e-03 1.934070323997482549e-02 -2.594061265525559462e-02 -7.575002211157806468e-03 -3.861266894637977592e-02 4.271608824979671037e-03 1.348354250726768733e-02 2.706397314255531462e-03 4.493251263953418773e-04 -3.715801462526943308e-03 -1.550089045013032085e-03 -1.123105712374360132e-02 -3.857718294275725747e-03 -1.677149724295310881e-02 9.383008062696769624e-03 -1.130321423531651173e-02 -1.187272909723898102e-02 -1.323027164421414692e-03 7.297753427663630776e-03 1.375020017231138409e-03 5.760567189260957024e-03 2.682828807873989009e-03 -4.660675889003750363e-03 1.482510763683730221e-03 4.121448854847386233e-04 -7.323054987665676956e-04 2.089985964513099096e-03 6.175792707533964187e-04 -1.153674790608201885e-03 3.377476152131875806e-04 1.862795982285474791e-04 -5.065983726518469114e-04 4.236791498808830346e-04 2.751740141137438023e-04 -8.314226311372654521e-04 5.791909492907561588e-03 4.808654198302834103e-04 -9.057482911141466475e-03 6.520260812416685953e-03 -1.580658118344029778e-02 7.081516884772601911e-03 -3.875115813407836729e-02 3.324959509444698480e-02 -4.368080637702616287e-03 -5.479643110797878525e-02 -4.773367359547506933e-02 -8.405317277670687481e-02 8.942174148706368009e-02 -4.411217392794469783e-02 1.119080085580752976e-01 0.000000000000000000e+00 0.000000000000000000e+00 0.000000000000000000e+00 -8.182071375049474001e-16 -1.197473925436252894e-16 0.000000000000000000e+00 -5.210283786020920946e-15 7.608812695065024410e-17 0.000000000000000000e+00 2.951923607390419128e-16 -5.302553891212677452e-15 1.991067039389853136e-15 0.000000000000000000e+00 0.000000000000000000e+00 0.000000000000000000e+00 0.000000000000000000e+00 -3.742519468489913563e-15 -3.474427249778183396e-15 0.000000000000000000e+00 5.037540280747790595e-15 -1.090036078393664404e-15 2.951923607390419128e-16 -5.302553891212677452e-15 1.991067039389853136e-15 0.000000000000000000e+00 8.957634865022068665e-16 2.171422559664545206e-15 0.000000000000000000e+00 -1.949706805580914475e-16 -6.236542094665708146e-15 0.000000000000000000e+00 4.649161500930893460e-15 -8.527730981793463484e-15 2.951923607390419128e-16 -5.302553891212677452e-15 1.991067039389853136e-15 0.000000000000000000e+00 0.000000000000000000e+00 0.000000000000000000e+00 0.000000000000000000e+00 -4.720571200530126251e-15 -5.184596336004252813e-16 0.000000000000000000e+00 -1.311803617621225317e-15 3.389546349416152499e-15 2.951923607390419128e-16 -5.302553891212677452e-15 1.991067039389853136e-15 0.000000000000000000e+00 0.000000000000000000e+00 0.000000000000000000e+00 0.000000000000000000e+00 6.114694076357102683e-15 -3.234561471031629671e-15 0.000000000000000000e+00 -9.318038227950151021e-15 1.832231005950550581e-15 6.572968065207645053e-03 1.045412998746206475e-02 1.283343319915642398e-02 -2.609877439762178439e-02 -8.379789804690583599e-03 1.364117100473188904e-02 -1.067456247118418571e-02 -1.496073131359666915e-02 -2.673574459269245987e-02 -1.570190699865591649e-02 1.009089312823109597e-02 1.375551792904921439e-03 0.000000000000000000e+00 0.000000000000000000e+00 0.000000000000000000e+00 -3.809268057467205893e-15 -6.103746835966571950e-15 0.000000000000000000e+00 -6.006757630573453995e-15 -3.750572590571068292e-16 0.000000000000000000e+00 5.575629357656324581e-15 2.550579602487894333e-15 -3.222788306717777323e-15 0.000000000000000000e+00 0.000000000000000000e+00 0.000000000000000000e+00 0.000000000000000000e+00 -5.948035270273779281e-15 -9.455075209218777512e-16 0.000000000000000000e+00 -2.505430296906612234e-15 3.607115636541243429e-15 5.575629357656324581e-15 2.550579602487894333e-15 -3.222788306717777323e-15 0.000000000000000000e+00 4.745160155157335103e-15 6.891120105871054518e-15 0.000000000000000000e+00 -1.482641192252330365e-15 -1.194207976466312901e-14 0.000000000000000000e+00 2.276929948432864419e-15 -1.289968831840737176e-14 5.575629357656324581e-15 2.550579602487894333e-15 -3.222788306717777323e-15 0.000000000000000000e+00 0.000000000000000000e+00 0.000000000000000000e+00 0.000000000000000000e+00 5.970663134803611599e-16 -2.720559102935933943e-16 0.000000000000000000e+00 -1.681127217690472313e-15 -1.052164822544554984e-14 5.575629357656324581e-15 2.550579602487894333e-15 -3.222788306717777323e-15 0.000000000000000000e+00 0.000000000000000000e+00 0.000000000000000000e+00 0.000000000000000000e+00 -4.565235922409429647e-15 -3.319067432560453351e-15 0.000000000000000000e+00 5.302158003450758160e-15 -1.247664366105991279e-14
1.500000000000000000e+02 0.000000000000000000e+00 0.000000000000000000e+00 0.000000000000000000e+00 0.000000000000000000e+00 -0.000000000000000000e+00 8.316383962934173479e-04 -5.315485717782945929e-03 -8.022080534902409701e-03 2.006861592774855652e-03 -1.090351570143791591e-03 3.907105968315532050e-03 -2.541941313556114052e-03 -5.241468626671356079e-04 6.289730694756073305e-03 -1.813728903109917707e-05 1.909190901603983808e-03 9.337702598733478836e-04 3.854932710956804863e-03 2.474834231962280088e-03 5.822328636627656720e-03 -4.081464781624809073e-03 3.300767121250416415e-03 8.628500713360796534e-03 -1.448469502796682516e-03 -1.518339258564299372e-03 -2.792306873169385795e-03 -3.347977981726803394e-03 -1.603903447926453580e-03 1.796401033354144737e-03 -5.620267093468420908e-04 -2.169930974360089826e-04 2.886267775507105017e-04 -1.331972080590112986e-03 -2.905726084162595481e-04 2.191565153006235693e-04 -3.674980425305269491e-05 8.282805257331027544e-05 2.764711125619226492e-04 -7.750066290468654725e-05 3.331961479495677576e-05 4.256843939332610239e-04 -4.494600608624870841e-04 5.712267392279458738e-04 4.893927576362061549e-03 -1.944727425903437779e-02 -5.933262600368307063e-03 2.560676394869135925e-02 8.094146102122407732e-03 -1.470765989732219017e-02 4.181550032772885124e-04 1.230429657064889271e-01 1.258971044401720474e-01 1.886605474936050020e-01 -1.117071577824418349e-01 -1.238244708297623203e-01 -1.952845140766633347e-02 0.000000000000000000e+00 0.000000000000000000e+00 0.000000000000000000e+00 2.164158985253866081e-14 -2.667793913105253523e-15 0.000000000000000000e+00 2.370971195267810123e-15 -3.385677550107384747e-15 0.000000000000000000e+00 -2.425530075371533546e-15 4.721118365395448068e-15 -1.254741736003411582e-15 0.000000000000000000e+00 0.000000000000000000e+00 0.000000000000000000e+00 0.000000000000000000e+00 1.358439540181389814e-15 1.046846714116712445e-14 0.000000000000000000e+00 -6.142977985654866421e-15 -4.401696812904340810e-15 -2.425530075371533546e-15 4.721118365395448068e-15 -1.254741736003411582e-15 0.000000000000000000e+00 4.010839403053483762e-15 -7.812939381070433581e-17 0.000000000000000000e+00 -9.693096316521390381e-16 1.290781769592737659e-14 0.000000000000000000e+00 -4.852640118553325222e-15 1.554016649339346907e-15 -2.425530075371533546e-15 4.721118365395448068e-15 -1.254741736003411582e-15 0.000000000000000000e+00 0.000000000000000000e+00 0.000000000000000000e+00 0.000000000000000000e+00 2.765843768245081202e-15 8.713349696225281173e-15 0.000000000000000000e+00 1.477610290282695514e-15 -9.885352353867818111e-15 -2.425530075371533546e-15 4.721118365395448068e-15 -1.254741736003411582e-15 0.000000000000000000e+00 0.000000000000000000e+00 0.000000000000000000e+00 0.000000000000000000e+00 -8.847975930465277853e-15 8.993390630169937867e-15 0.000000000000000000e+00 6.106871099696692025e-15 -7.305157145210087351e-15 -1.527046221632175071e-03 -5.117963074304981118e-03 -7.701800544915060956e-03 8.455818448000699400e-03 2.744351079120299630e-03 -2.776326889353521350e-03 2.465913817352210786e-03 8.575674082791501229e-03 1.024677903016813461e-02 -2.072825198078591391e-02 -5.999791465555227854e-02 -2.872070127152040117e-02 0.000000000000000000e+00 0.000000000000000000e+00 0.000000000000000000e+00 2.427441382646946253e-15 5.825526374765401130e-15 0.000000000000000000e+00 7.174797748716159014e-15 1.755764834506561858e-15 0.000000000000000000e+00 -4.277059283118124442e-15 -1.279631255101825791e-15 1.620835472029249771e-15 0.000000000000000000e+00 0.000000000000000000e+00 0.000000000000000000e+00 0.000000000000000000e+00 5.426297361992636931e-15 5.386245220687547087e-15 0.000000000000000000e+00 1.282224003409896057e-15 -2.360102101656801811e-15 -4.277059283118124442e-15 -1.279631255101825791e-15 1.620835472029249771e-15 0.000000000000000000e+00 -6.831609491863679041e-15 -4.968468513254508304e-15 0.000000000000000000e+00 1.831762560881013212e-15 1.415627892624483034e-14 0.000000000000000000e+00 -9.876248416922162727e-16 1.216375519587379474e-14 -4.277059283118124442e-15 -1.279631255101825791e-15 1.620835472029249771e-15 0.000000000000000000e+00 0.000000000000000000e+00 0.000000000000000000e+00 0.000000000000000000e+00 -1.203942562070514864e-15 3.247108622683967366e-15 0.000000000000000000e+00 2.323410137358449162e-15 1.074823125563475741e-14 -4.277059283118124442e-15 -1.279631255101825791e-15 1.620835472029249771e-15 0.000000000000000000e+00 0.000000000000000000e+00 0.000000000000000000e+00 0.000000000000000000e+00 1.554916795702454423e-15 9.583577070570860725e-15 0.000000000000000000e+00 -5.098923632630857202e-15 1.353234753831620513e-14
